<svg xmlns="http://www.w3.org/2000/svg" viewBox="0 0 17 13" width="17px" height="13px" xmlns:xlink="http://www.w3.org/1999/xlink" version="1.1">
    <g fill="none" fill-rule="evenodd" stroke="none" stroke-width="1">
        <g fill="#000000" transform="translate(-987 -28)">
            <g transform="translate(980 20)">
                <g transform="translate(7 8)">
                    <path transform="translate(8.22614 6.66595) scale(-1, 1) translate(-8.22614 -6.66595)" d="M 14.1504 5.929 C 12.6645 4.43459 10.7606 3.67473 8.10104 3.55652 L 8.10104 0.56884 C 8.10104 0.346726 7.94645 0.269784 7.77344 0.385183 L 0.412869 5.29479 C 0.184848 5.44688 0.184519 5.69319 0.413084 5.84556 L 7.77749 10.7552 C 7.95851 10.8759 8.10526 10.7926 8.10526 10.574 L 8.10526 7.60493 C 9.79386 7.65137 10.7395 7.98909 11.7653 8.44923 C 13.0697 9.0318 14.0998 10.3067 14.9652 11.6829 L 15.7757 13 L 16.2105 13 C 16.2105 12.5736 16.2063 12.0333 16.2063 11.6576 C 16.2063 10.9484 16.3583 8.14951 14.1504 5.929 Z"/>
                </g>
            </g>
        </g>
    </g>
</svg>